<?xml version="1.0" encoding="UTF-8"?>
<!DOCTYPE svg PUBLIC "-//W3C//DTD SVG 1.1//EN" "http://www.w3.org/Graphics/SVG/1.1/DTD/svg11.dtd">
<svg xmlns="http://www.w3.org/2000/svg" version="1.1" width="2434px" height="2511px" style="shape-rendering:geometricPrecision; text-rendering:geometricPrecision; image-rendering:optimizeQuality; fill-rule:evenodd; clip-rule:evenodd" xmlns:xlink="http://www.w3.org/1999/xlink">
<g><path style="opacity:0.997" fill="#fefffe" d="M 1049.5,236.5 C 1111.58,234.176 1172.24,242.343 1231.5,261C 1245.9,265.465 1260.23,270.132 1274.5,275C 1275.52,275.519 1276.18,276.353 1276.5,277.5C 1255.29,346.458 1229.96,413.791 1200.5,479.5C 1198.24,480.647 1195.9,480.814 1193.5,480C 1165.22,474.077 1136.88,468.41 1108.5,463C 1088.95,459.845 1069.29,458.012 1049.5,457.5C 1049.5,383.833 1049.5,310.167 1049.5,236.5 Z"/></g>
<g><path style="opacity:0.997" fill="#fefffe" d="M 780.5,274.5 C 784.083,279.327 786.916,284.661 789,290.5C 797.12,310.193 804.454,330.193 811,350.5C 824.455,394.34 836.622,438.34 847.5,482.5C 801.588,506.039 755.755,529.706 710,553.5C 693.257,536.095 677.257,518.095 662,499.5C 633.467,461.6 605.301,423.434 577.5,385C 601.537,362.815 627.87,343.815 656.5,328C 696.823,307.514 738.157,289.681 780.5,274.5 Z"/></g>
<g><path style="opacity:0.996" fill="#fefffe" d="M 969.5,304.5 C 981.833,304.5 994.167,304.5 1006.5,304.5C 1008.85,319.4 1009.85,334.4 1009.5,349.5C 1009.23,367.518 1008.57,385.518 1007.5,403.5C 962.094,410.068 916.76,417.068 871.5,424.5C 860.047,405.323 852.214,384.656 848,362.5C 845.176,350.911 843.676,339.245 843.5,327.5C 884.643,314.423 926.643,306.756 969.5,304.5 Z"/></g>
<g><path style="opacity:0.995" fill="#fefffe" d="M 1288.5,353.5 C 1337.74,370.323 1383.07,394.157 1424.5,425C 1421.01,433.823 1416.84,442.323 1412,450.5C 1401.67,463.5 1391.33,476.5 1381,489.5C 1376.58,495.998 1372.42,502.665 1368.5,509.5C 1329.18,488.842 1290.18,467.675 1251.5,446C 1259.82,413.536 1272.15,382.703 1288.5,353.5 Z"/></g>
<g><path style="opacity:0.997" fill="#fefffe" d="M 1494.5,396.5 C 1562.09,440.092 1616.43,496.425 1657.5,565.5C 1601,607.346 1542.5,646.346 1482,682.5C 1445.61,643.909 1409.77,604.742 1374.5,565C 1414.39,508.716 1454.39,452.549 1494.5,396.5 Z"/></g>
<g><path style="opacity:0.985" fill="#fefffe" d="M 509.5,431.5 C 519.04,432.187 526.874,436.187 533,443.5C 542.349,460.222 547.349,478.222 548,497.5C 811.614,854.782 1075.61,1211.78 1340,1568.5C 1418.67,1673.83 1497.33,1779.17 1576,1884.5C 1604,1923.17 1632,1961.83 1660,2000.5C 1677.89,2026.72 1701.05,2046.88 1729.5,2061C 1747.73,2068.65 1766.73,2072.98 1786.5,2074C 1868.84,2074.52 1951.17,2074.19 2033.5,2073C 2038.63,2072.14 2043.63,2070.8 2048.5,2069C 2058,2063.08 2067.67,2057.41 2077.5,2052C 2095.77,2047.71 2109.93,2053.55 2120,2069.5C 2121.89,2079.19 2121.89,2088.85 2120,2098.5C 2113.07,2115.38 2100.57,2122.55 2082.5,2120C 2073.37,2116.27 2065.04,2111.27 2057.5,2105C 2052.4,2102.12 2047.07,2099.78 2041.5,2098C 1967.34,2096.2 1893.18,2096.03 1819,2097.5C 1743.55,2099.77 1683.55,2070.77 1639,2010.5C 1562.39,1904.89 1485.39,1799.55 1408,1694.5C 1116.33,1301.5 824.667,908.5 533,515.5C 531.062,512.894 528.562,511.061 525.5,510C 514.931,506.588 504.598,502.588 494.5,498C 479.519,488.407 474.353,474.907 479,457.5C 484.769,443.557 494.936,434.89 509.5,431.5 Z M 509.5,455.5 C 523.395,456.891 528.228,464.224 524,477.5C 516.893,485.704 509.227,486.371 501,479.5C 494.819,468.207 497.652,460.207 509.5,455.5 Z M 2087.5,2071.5 C 2100.62,2072.1 2105.79,2078.76 2103,2091.5C 2099.02,2099.04 2092.85,2101.54 2084.5,2099C 2075.52,2093.24 2073.69,2085.74 2079,2076.5C 2081.53,2074.1 2084.36,2072.43 2087.5,2071.5 Z"/></g>
<g><path style="opacity:0.995" fill="#fefffe" d="M 1620.5,632.5 C 1621.82,632.33 1622.99,632.663 1624,633.5C 1644.17,660.166 1660.51,689.166 1673,720.5C 1679.93,737.794 1686.76,755.127 1693.5,772.5C 1662.36,783.824 1630.86,794.491 1599,804.5C 1598.23,804.355 1597.56,804.022 1597,803.5C 1577.76,765.518 1558.93,727.351 1540.5,689C 1542.78,685.714 1545.45,682.714 1548.5,680C 1553.68,676.24 1558.68,672.24 1563.5,668C 1582.23,655.641 1601.23,643.807 1620.5,632.5 Z"/></g>
<g><path style="opacity:0.985" fill="#fefffe" d="M 939.5,1203.5 C 940.129,1200.87 941.795,1199.2 944.5,1198.5C 932.034,1168.19 913.201,1142.53 888,1121.5C 875.916,1099.65 862.582,1078.65 848,1058.5C 822.715,1025.55 797.048,992.88 771,960.5C 731.915,905.741 690.915,852.408 648,800.5C 634.424,783.013 621.09,765.346 608,747.5C 584.866,719.064 555.033,702.564 518.5,698C 484.33,697.686 450.163,697.186 416,696.5C 400.808,695.292 386.308,697.792 372.5,704C 366.167,707.667 361.167,712.667 357.5,719C 342.898,720.797 330.065,716.964 319,707.5C 310.347,694.703 309.347,681.37 316,667.5C 322.377,660.455 329.877,654.955 338.5,651C 347.084,649.812 355.084,651.479 362.5,656C 371.361,663.265 381.027,669.265 391.5,674C 430.504,674.405 469.504,674.405 508.5,674C 544.967,676.909 576.967,690.242 604.5,714C 612.667,722.167 620.833,730.333 629,738.5C 736.032,875.575 841.365,1013.91 945,1153.5C 1163.39,1448.22 1381.39,1743.22 1599,2038.5C 1600.87,2040.71 1603.04,2042.54 1605.5,2044C 1614.03,2047.07 1622.7,2049.73 1631.5,2052C 1636,2053.75 1640,2056.25 1643.5,2059.5C 1647.8,2069.41 1650.47,2079.74 1651.5,2090.5C 1651.7,2094.41 1650.87,2098.08 1649,2101.5C 1640.39,2110.28 1630.56,2117.28 1619.5,2122.5C 1608.16,2119.41 1598.66,2113.41 1591,2104.5C 1585.51,2094.49 1584.01,2083.83 1586.5,2072.5C 1585.63,2059.39 1581.13,2047.72 1573,2037.5C 1387.62,1787.91 1202.12,1538.41 1016.5,1289C 1014,1288.11 1011.67,1286.95 1009.5,1285.5C 995.175,1252.35 974.175,1224.18 946.5,1201C 944.285,1201.76 941.951,1202.59 939.5,1203.5 Z M 342.5,670.5 C 352.588,670.204 358.255,675.037 359.5,685C 358.533,693.728 353.7,698.561 345,699.5C 330.918,695.386 327.585,687.053 335,674.5C 337.514,672.996 340.014,671.662 342.5,670.5 Z M 1616.5,2071.5 C 1631.48,2072.79 1636.31,2080.45 1631,2094.5C 1624.8,2100.1 1617.97,2100.94 1610.5,2097C 1604.92,2091.15 1604.09,2084.65 1608,2077.5C 1610.32,2074.6 1613.16,2072.6 1616.5,2071.5 Z"/></g>
<g><path style="opacity:0.997" fill="#fefffe" d="M 1762.5,790.5 C 1763.38,790.369 1764.04,790.702 1764.5,791.5C 1783.87,827.32 1794.37,865.654 1796,906.5C 1797.45,944.222 1799.62,981.889 1802.5,1019.5C 1768.9,1022.3 1735.23,1023.13 1701.5,1022C 1662.08,1020.21 1622.75,1017.38 1583.5,1013.5C 1576.45,962.788 1569.11,912.121 1561.5,861.5C 1580.68,852.247 1600.35,844.08 1620.5,837C 1667.92,821.361 1715.25,805.861 1762.5,790.5 Z"/></g>
<g><path style="opacity:0.996" fill="#fefffe" d="M 1647.5,1048.5 C 1664.17,1048.33 1680.84,1048.5 1697.5,1049C 1709.46,1050.16 1721.13,1052.66 1732.5,1056.5C 1733.32,1096.92 1728.16,1136.58 1717,1175.5C 1714.24,1186.28 1710.41,1196.61 1705.5,1206.5C 1672.79,1202.76 1641.96,1193.1 1613,1177.5C 1612.57,1169.48 1612.9,1161.48 1614,1153.5C 1618.26,1129.54 1622.26,1105.54 1626,1081.5C 1626.5,1071.17 1626.67,1060.84 1626.5,1050.5C 1633.66,1049.99 1640.66,1049.32 1647.5,1048.5 Z"/></g>
<g><path style="opacity:0.993" fill="#fefffe" d="M 861.5,1123.5 C 870.418,1123.18 879.251,1123.52 888,1124.5C 888.161,1141.2 884.827,1157.2 878,1172.5C 854.626,1221.58 829.959,1269.92 804,1317.5C 762.093,1393.65 719.426,1469.32 676,1544.5C 671.137,1552.27 669.637,1560.61 671.5,1569.5C 691.815,1571.35 712.149,1573.19 732.5,1575C 751.358,1577.17 768.358,1583.84 783.5,1595C 793.703,1605.53 803.536,1616.37 813,1627.5C 819.587,1634.09 826.753,1639.92 834.5,1645C 836.65,1646.59 838.983,1647.26 841.5,1647C 846.462,1636.91 851.295,1626.74 856,1616.5C 898.471,1513.42 941.138,1410.42 984,1307.5C 988.608,1299.56 995.108,1293.73 1003.5,1290C 1004.5,1289.33 1005.5,1289.33 1006.5,1290C 1004.21,1294.08 1004.04,1298.25 1006,1302.5C 1009.92,1308.67 1013.59,1315 1017,1321.5C 1018.28,1325.1 1018.61,1328.76 1018,1332.5C 958.609,1475.61 898.943,1618.61 839,1761.5C 825.189,1794.3 804.689,1822.13 777.5,1845C 726.627,1880.05 673.96,1882.71 619.5,1853C 553.703,1814.98 530.87,1759.15 551,1685.5C 555.913,1669.1 562.58,1653.43 571,1638.5C 647.891,1522.77 718.224,1402.77 782,1278.5C 806.256,1230.99 830.256,1183.32 854,1135.5C 856.725,1131.62 859.225,1127.62 861.5,1123.5 Z M 684.5,1614.5 C 736.706,1612 772.873,1634.67 793,1682.5C 803.756,1718.81 798.422,1752.48 777,1783.5C 755.723,1808.38 728.557,1820.72 695.5,1820.5C 629.182,1818.85 595.182,1784.85 593.5,1718.5C 593.468,1656.88 623.801,1622.22 684.5,1614.5 Z"/></g>
<g><path style="opacity:0.996" fill="#fefffe" d="M 939.5,1203.5 C 937.234,1207.97 937.734,1212.3 941,1216.5C 952.588,1233.34 964.421,1250.01 976.5,1266.5C 961.786,1297.26 947.619,1328.26 934,1359.5C 903.495,1435.51 872.162,1511.18 840,1586.5C 839.282,1587.45 838.449,1587.62 837.5,1587C 815.994,1572.41 793.661,1559.07 770.5,1547C 754.581,1539.69 737.915,1535.19 720.5,1533.5C 763.288,1452.6 806.121,1371.6 849,1290.5C 867.327,1257.17 886.161,1224.17 905.5,1191.5C 909.518,1188.33 913.851,1187.83 918.5,1190C 923.52,1194.02 928.186,1198.36 932.5,1203C 934.813,1204.52 937.146,1204.68 939.5,1203.5 Z"/></g>
<g><path style="opacity:0.997" fill="#fefffe" d="M 1548.5,1201.5 C 1615.91,1223.02 1683.24,1244.86 1750.5,1267C 1751.52,1267.52 1752.18,1268.35 1752.5,1269.5C 1730.47,1345.41 1694.47,1413.58 1644.5,1474C 1642.21,1474.42 1640.21,1473.75 1638.5,1472C 1581.77,1430.62 1526.77,1386.95 1473.5,1341C 1498.64,1294.55 1523.64,1248.05 1548.5,1201.5 Z"/></g>
<g><path style="opacity:0.994" fill="#fefffe" d="M 1492.5,1394.5 C 1519.79,1415.79 1546.79,1437.46 1573.5,1459.5C 1551.41,1491.76 1525.08,1520.26 1494.5,1545C 1484.6,1553.2 1474.44,1561.03 1464,1568.5C 1457.36,1562.87 1451.03,1556.87 1445,1550.5C 1434.61,1536.44 1424.61,1522.11 1415,1507.5C 1410.5,1502.33 1406,1497.17 1401.5,1492C 1405.62,1486.21 1410.12,1480.71 1415,1475.5C 1435.3,1456.87 1455.3,1437.87 1475,1418.5C 1481.58,1411 1487.41,1403 1492.5,1394.5 Z"/></g>
<g><path style="opacity:0.995" fill="#fefffe" d="M 688.5,1649.5 C 730.105,1649.28 754.605,1669.61 762,1710.5C 764.382,1739.57 753.548,1762.07 729.5,1778C 701.851,1791.1 675.851,1788.43 651.5,1770C 628.87,1746.86 623.37,1720.02 635,1689.5C 645.606,1666.38 663.44,1653.05 688.5,1649.5 Z"/></g>
<g><path style="opacity:0.997" fill="#fefffe" d="M 525.5,1801.5 C 542.848,1826.68 563.848,1848.52 588.5,1867C 636.061,1898.46 687.394,1906.46 742.5,1891C 772.725,1879.97 798.891,1862.81 821,1839.5C 827.675,1831.33 834.509,1823.33 841.5,1815.5C 842.988,1820.37 843.822,1825.37 844,1830.5C 845.153,1894.76 836.319,1957.6 817.5,2019C 720.167,2019.5 622.834,2019.67 525.5,2019.5C 525.5,1946.83 525.5,1874.17 525.5,1801.5 Z"/></g>
<g><path style="opacity:0.998" fill="#fefffe" d="M 465.5,2045.5 C 610.5,2045.33 755.5,2045.5 900.5,2046C 924.334,2046.14 947.334,2050.47 969.5,2059C 989.171,2069.14 1000.34,2085.31 1003,2107.5C 1005.26,2130.28 1004.43,2152.95 1000.5,2175.5C 782.167,2175.5 563.833,2175.5 345.5,2175.5C 341.644,2158.7 338.978,2141.7 337.5,2124.5C 337.96,2113.66 340.46,2103.33 345,2093.5C 350.414,2083.67 356.081,2074 362,2064.5C 373.124,2056.19 385.624,2051.03 399.5,2049C 404.47,2048.11 409.47,2047.45 414.5,2047C 431.672,2046.83 448.672,2046.33 465.5,2045.5 Z"/></g>
</svg>
